<svg width="186" height="166" viewBox="0 0 186 166" fill="none" xmlns="http://www.w3.org/2000/svg">
<path d="M185.315 72.5524C185.315 123.711 143.838 165.203 92.665 165.203C41.4919 165.203 2.34328e-05 123.711 2.34328e-05 72.5524C-0.00366563 67.3737 0.428234 62.2039 1.29116 57.0977C4.94526 78.6876 16.1264 98.2861 32.8523 112.418C49.5781 126.551 70.768 134.304 92.665 134.303C138.576 134.303 176.682 100.909 184.024 57.0928C184.89 62.2003 185.322 67.372 185.315 72.5524Z" fill="url(#paint0_linear_360_56)"/>
<path d="M92.6649 147.877C44.3811 147.877 4.77478 110.985 0.419008 63.8701C0.151036 66.7301 0 69.6193 0 72.5475C0 123.706 41.4822 165.198 92.6649 165.198C143.848 165.198 185.315 123.711 185.315 72.5524C185.315 69.629 185.169 66.7349 184.901 63.8749C180.54 110.985 140.919 147.877 92.6649 147.877Z" fill="url(#paint1_linear_360_56)"/>
<path d="M171.668 50.5494V75.5585C165.131 88.943 155.432 100.534 143.409 109.328V50.5494H171.668Z" fill="url(#paint2_linear_360_56)"/>
<path d="M13.6471 50.5494V75.5585C20.1844 88.943 29.8836 100.534 41.906 109.328V50.5494H13.6471Z" fill="url(#paint3_linear_360_56)"/>
<path d="M92.6601 75.7388H50.3838V79.7633C50.3851 80.8078 50.8009 81.8091 51.54 82.5473C52.279 83.2854 53.2809 83.7 54.3254 83.7H130.995C131.512 83.7 132.024 83.5982 132.501 83.4004C132.979 83.2025 133.413 82.9125 133.779 82.547C134.144 82.1814 134.434 81.7474 134.632 81.2698C134.83 80.7922 134.932 80.2803 134.932 79.7633V75.7388H92.6601Z" fill="url(#paint4_linear_360_56)"/>
<path d="M14.6849 47.2168H40.8927C41.4096 47.2168 41.9216 47.1149 42.3992 46.9171C42.8768 46.7193 43.3108 46.4293 43.6764 46.0637C44.0419 45.6982 44.3319 45.2642 44.5297 44.7865C44.7276 44.3089 44.8294 43.797 44.8294 43.28V40.7952H10.7628V43.28C10.7641 44.3212 11.1772 45.3196 11.9121 46.0572C12.6469 46.7947 13.6438 47.2116 14.6849 47.2168Z" fill="url(#paint5_linear_360_56)"/>
<path d="M42.6223 40.8001C45.4482 39.3871 48.8344 33.0337 44.7417 28.2297C40.649 23.4257 27.7863 21.5889 27.7863 18.0565C27.7863 21.5889 14.9334 23.4159 10.8359 28.2297C6.73832 33.0435 10.1294 39.3871 12.9553 40.8001H42.6223Z" fill="url(#paint6_linear_360_56)"/>
<path d="M31.3285 0C32.2181 1.5796 32.5666 3.40687 32.3208 5.20302C32.0749 6.99917 31.2483 8.6656 29.9669 9.94807C28.6855 11.2305 27.0198 12.0586 25.2239 12.306C23.428 12.5534 21.6004 12.2065 20.02 11.3182C20.6486 12.4368 21.5276 13.3948 22.5882 14.1169C23.6489 14.8391 24.8623 15.3059 26.1335 15.4808C27.4046 15.6557 28.699 15.534 29.9153 15.1251C31.1315 14.7161 32.2366 14.0312 33.1439 13.1239C34.0512 12.2166 34.7362 11.1115 35.1451 9.89525C35.554 8.679 35.6758 7.3846 35.5009 6.11343C35.326 4.84226 34.8591 3.62884 34.137 2.56822C33.4148 1.5076 32.4568 0.628572 31.3382 0H31.3285Z" fill="url(#paint7_linear_360_56)"/>
<path d="M92.6601 75.7388H57.9114C51.2949 72.4306 43.3531 57.5362 52.9466 46.2862C62.54 35.0362 92.6601 30.734 92.6601 22.461C92.6601 30.7438 122.77 35.0362 132.369 46.2862C141.967 57.5362 134.025 72.4306 127.404 75.7388H92.6601Z" fill="url(#paint8_linear_360_56)"/>
<path d="M89.118 0.881882C88.2035 2.46131 87.8363 4.29855 88.0734 6.10813C88.3106 7.91772 89.1387 9.59833 90.4292 10.8888C91.7197 12.1793 93.4003 13.0075 95.2099 13.2446C97.0195 13.4817 98.8567 13.1145 100.436 12.2001C99.8076 13.3187 98.9286 14.2766 97.8679 14.9988C96.8073 15.721 95.5939 16.1878 94.3227 16.3627C93.0516 16.5376 91.7572 16.4158 90.5409 16.0069C89.3247 15.598 88.2196 14.9131 87.3123 14.0058C86.405 13.0984 85.72 11.9934 85.3111 10.7771C84.9022 9.56088 84.7804 8.26648 84.9553 6.99531C85.1302 5.72414 85.597 4.51072 86.3192 3.4501C87.0414 2.38948 87.9993 1.51045 89.118 0.881882Z" fill="url(#paint9_linear_360_56)"/>
<path d="M92.6649 87.3542H53.4532V116.441C62.077 120.899 71.3982 123.851 81.0154 125.172V113.43C78.7986 112.32 76.1432 107.33 79.354 103.559C82.5648 99.7881 92.66 98.3508 92.66 95.5785C92.66 98.3508 102.75 99.7881 105.966 103.559C109.182 107.33 106.522 112.329 104.3 113.43V125.172C113.918 123.857 123.241 120.909 131.867 116.456V87.3688L92.6649 87.3542Z" fill="url(#paint10_linear_360_56)"/>
<path d="M170.635 47.2168H144.427C143.383 47.2168 142.381 46.8022 141.642 46.064C140.903 45.3259 140.487 44.3246 140.486 43.28V40.7952H174.591V43.28C174.591 43.7986 174.489 44.3122 174.29 44.7911C174.091 45.27 173.799 45.7048 173.432 46.0706C173.064 46.4365 172.628 46.726 172.148 46.9227C171.668 47.1194 171.154 47.2193 170.635 47.2168Z" fill="url(#paint11_linear_360_56)"/>
<path d="M142.698 40.8001C139.872 39.3871 136.481 33.0337 140.578 28.2297C144.676 23.4257 157.529 21.5889 157.529 18.0565C157.529 21.5889 170.387 23.4159 174.479 28.2297C178.572 33.0435 175.186 39.3871 172.365 40.8001H142.698Z" fill="url(#paint12_linear_360_56)"/>
<path d="M154.006 0C153.114 1.58052 152.764 3.40985 153.009 5.20827C153.255 7.00668 154.082 8.67518 155.366 9.95864C156.649 11.2421 158.318 12.0699 160.116 12.3154C161.915 12.5609 163.744 12.2107 165.325 11.3182C164.696 12.4368 163.817 13.3948 162.756 14.1169C161.696 14.8391 160.482 15.3059 159.211 15.4808C157.94 15.6557 156.645 15.534 155.429 15.1251C154.213 14.7161 153.108 14.0312 152.201 13.1239C151.293 12.2166 150.608 11.1115 150.199 9.89525C149.791 8.679 149.669 7.3846 149.844 6.11343C150.019 4.84226 150.485 3.62884 151.208 2.56822C151.93 1.5076 152.888 0.628572 154.006 0Z" fill="url(#paint13_linear_360_56)"/>
<defs>
<linearGradient id="paint0_linear_360_56" x1="92.6577" y1="57.0928" x2="92.6577" y2="165.203" gradientUnits="userSpaceOnUse">
<stop stop-color="#C0A37C"/>
<stop offset="1" stop-color="#FFD482"/>
</linearGradient>
<linearGradient id="paint1_linear_360_56" x1="92.6576" y1="63.8701" x2="92.6576" y2="165.198" gradientUnits="userSpaceOnUse">
<stop stop-color="#C0A37C"/>
<stop offset="1" stop-color="#FFD482"/>
</linearGradient>
<linearGradient id="paint2_linear_360_56" x1="157.539" y1="50.5494" x2="157.539" y2="109.328" gradientUnits="userSpaceOnUse">
<stop stop-color="#C0A37C"/>
<stop offset="1" stop-color="#FFD482"/>
</linearGradient>
<linearGradient id="paint3_linear_360_56" x1="27.7766" y1="50.5494" x2="27.7766" y2="109.328" gradientUnits="userSpaceOnUse">
<stop stop-color="#C0A37C"/>
<stop offset="1" stop-color="#FFD482"/>
</linearGradient>
<linearGradient id="paint4_linear_360_56" x1="92.6577" y1="75.7388" x2="92.6577" y2="83.7" gradientUnits="userSpaceOnUse">
<stop stop-color="#C0A37C"/>
<stop offset="1" stop-color="#FFD482"/>
</linearGradient>
<linearGradient id="paint5_linear_360_56" x1="27.7961" y1="40.7952" x2="27.7961" y2="47.2168" gradientUnits="userSpaceOnUse">
<stop stop-color="#C0A37C"/>
<stop offset="1" stop-color="#FFD482"/>
</linearGradient>
<linearGradient id="paint6_linear_360_56" x1="27.7877" y1="18.0565" x2="27.7877" y2="40.8001" gradientUnits="userSpaceOnUse">
<stop stop-color="#C0A37C"/>
<stop offset="1" stop-color="#FFD482"/>
</linearGradient>
<linearGradient id="paint7_linear_360_56" x1="27.7992" y1="0" x2="27.7992" y2="15.5584" gradientUnits="userSpaceOnUse">
<stop stop-color="#C0A37C"/>
<stop offset="1" stop-color="#FFD482"/>
</linearGradient>
<linearGradient id="paint8_linear_360_56" x1="92.6593" y1="22.461" x2="92.6593" y2="75.7388" gradientUnits="userSpaceOnUse">
<stop stop-color="#C0A37C"/>
<stop offset="1" stop-color="#FFD482"/>
</linearGradient>
<linearGradient id="paint9_linear_360_56" x1="92.657" y1="0.881882" x2="92.657" y2="16.4403" gradientUnits="userSpaceOnUse">
<stop stop-color="#C0A37C"/>
<stop offset="1" stop-color="#FFD482"/>
</linearGradient>
<linearGradient id="paint10_linear_360_56" x1="92.66" y1="87.3542" x2="92.66" y2="125.172" gradientUnits="userSpaceOnUse">
<stop stop-color="#C0A37C"/>
<stop offset="1" stop-color="#FFD482"/>
</linearGradient>
<linearGradient id="paint11_linear_360_56" x1="157.539" y1="40.7952" x2="157.539" y2="47.2168" gradientUnits="userSpaceOnUse">
<stop stop-color="#C0A37C"/>
<stop offset="1" stop-color="#FFD482"/>
</linearGradient>
<linearGradient id="paint12_linear_360_56" x1="157.528" y1="18.0565" x2="157.528" y2="40.8001" gradientUnits="userSpaceOnUse">
<stop stop-color="#C0A37C"/>
<stop offset="1" stop-color="#FFD482"/>
</linearGradient>
<linearGradient id="paint13_linear_360_56" x1="157.545" y1="0" x2="157.545" y2="15.5584" gradientUnits="userSpaceOnUse">
<stop stop-color="#C0A37C"/>
<stop offset="1" stop-color="#FFD482"/>
</linearGradient>
</defs>
</svg>
